<svg width="29" height="29" viewBox="0 0 29 29" fill="none" xmlns="http://www.w3.org/2000/svg">
<path d="M19.2637 28.5952L8.76367 28.5952C3.93192 28.5952 0.0136719 24.677 0.0136719 19.8452L0.0136719 9.34521C0.0136719 4.51347 3.93192 0.595215 8.76367 0.595215L19.2637 0.595215C24.0954 0.595215 28.0137 4.51347 28.0137 9.34521L28.0137 19.8452C28.0137 24.677 24.0954 28.5952 19.2637 28.5952ZM25.3887 9.34521C25.3887 5.96771 22.6412 3.22021 19.2637 3.22021L8.76367 3.22021C5.38617 3.22021 2.63867 5.96771 2.63867 9.34521L2.63867 19.8452C2.63867 23.2227 5.38617 25.9702 8.76367 25.9702L19.2637 25.9702C22.6412 25.9702 25.3887 23.2227 25.3887 19.8452L25.3887 9.34521Z" fill="white"/>
<path d="M14.0137 21.5952C10.1479 21.5952 7.01367 18.461 7.01367 14.5952C7.01367 10.7295 10.1479 7.59521 14.0137 7.59521C17.8794 7.59521 21.0137 10.7295 21.0137 14.5952C21.0137 18.461 17.8794 21.5952 14.0137 21.5952ZM14.0137 10.2202C11.6022 10.2202 9.63867 12.1837 9.63867 14.5952C9.63867 17.0085 11.6022 18.9702 14.0137 18.9702C16.4252 18.9702 18.3887 17.0085 18.3887 14.5952C18.3887 12.1837 16.4252 10.2202 14.0137 10.2202Z" fill="white"/>
<path d="M5.93275 7.00023C6.44789 7.00023 6.8655 7.41783 6.8655 7.93298C6.8655 8.44812 6.44789 8.86572 5.93275 8.86572C5.41761 8.86572 5 8.44812 5 7.93298C5 7.41783 5.41761 7.00023 5.93275 7.00023Z" fill="white"/>
</svg>
