<svg width="29" height="29" viewBox="0 0 29 29" fill="none" xmlns="http://www.w3.org/2000/svg">
<path d="M9.58496 0.478027L20.085 0.478027C24.9167 0.478027 28.835 4.39628 28.835 9.22803V19.728C28.835 24.5598 24.9167 28.478 20.085 28.478H9.58496C4.75321 28.478 0.834963 24.5598 0.834963 19.728V9.22803C0.834963 4.39628 4.75321 0.478027 9.58496 0.478027ZM3.45996 19.728C3.45996 23.1055 6.20746 25.853 9.58496 25.853H20.085C23.4625 25.853 26.21 23.1055 26.21 19.728V9.22803C26.21 5.85053 23.4625 3.10303 20.085 3.10303L9.58496 3.10303C6.20746 3.10303 3.45996 5.85053 3.45996 9.22803V19.728Z" fill="#C7C7C7"/>
<path d="M14.835 7.47803C18.7007 7.47803 21.835 10.6123 21.835 14.478C21.835 18.3438 18.7007 21.478 14.835 21.478C10.9692 21.478 7.83496 18.3438 7.83496 14.478C7.83496 10.6123 10.9692 7.47803 14.835 7.47803ZM14.835 18.853C17.2465 18.853 19.21 16.8895 19.21 14.478C19.21 12.0648 17.2465 10.103 14.835 10.103C12.4235 10.103 10.46 12.0648 10.46 14.478C10.46 16.8895 12.4235 18.853 14.835 18.853Z" fill="#C7C7C7"/>
<path d="M7.30993 7.88551C6.79478 7.88551 6.37717 7.46791 6.37717 6.95277C6.37717 6.43762 6.79478 6.02002 7.30993 6.02002C7.82507 6.02002 8.24268 6.43762 8.24268 6.95277C8.24268 7.46791 7.82507 7.88551 7.30993 7.88551Z" fill="#C7C7C7"/>
</svg>
