<svg width="269" height="106" viewBox="0 0 269 106" fill="none" xmlns="http://www.w3.org/2000/svg">
<path d="M28.2072 0.0791015L4.18729 0.0791016C2.32659 0.0791016 0.804199 1.60149 0.804199 3.46219C0.804199 5.32289 2.32659 6.84528 4.18729 6.84528L28.2072 6.84528C34.9734 6.84528 44.7843 15.1338 44.7843 30.3577C44.7843 45.4125 34.9734 53.701 28.2072 53.701L4.18729 53.701C2.32659 53.701 0.804199 55.2234 0.804199 57.0841C0.804199 58.9448 2.32659 60.4672 4.18729 60.4672L28.2072 60.4672C39.5406 60.4672 51.7197 48.2881 51.7197 30.1886C51.7197 12.2582 39.5406 0.0791015 28.2072 0.0791015ZM109.74 2.61642C109.232 1.09403 108.048 0.0791013 106.357 0.0791013C104.834 0.0791013 103.481 1.09403 102.973 2.61642L74.7247 100.557C74.2172 102.418 75.2321 104.278 77.0928 104.786C78.9535 105.293 80.8142 104.278 81.3217 102.418L106.526 15.9796L131.73 102.587C132.237 104.109 133.59 105.124 135.113 105.124C135.451 105.124 135.789 105.124 136.128 104.955C137.988 104.447 139.003 102.587 138.496 100.726L109.74 2.61642ZM182.307 0.0791011L158.456 0.0791012C156.595 0.0791012 155.073 1.60149 155.073 3.46219C155.073 5.32289 156.595 6.84528 158.456 6.84528L182.476 6.84528C190.257 6.84528 199.053 15.1338 199.053 26.9746C199.053 38.8155 190.257 47.104 182.476 47.104L173.849 47.104C171.312 47.104 169.789 49.303 170.635 51.6712L188.566 102.418C189.073 103.771 190.426 104.786 191.779 104.786C192.118 104.786 192.625 104.786 192.964 104.617C194.824 103.94 195.67 102.079 194.993 100.218L178.755 54.2085L182.476 54.2085C193.809 54.2085 205.988 43.3826 205.988 27.1438C205.988 10.905 193.64 0.0791011 182.307 0.0791011ZM268.576 100.049L246.078 50.6563L266.884 4.98458C267.73 3.29303 266.884 1.26318 265.193 0.41741C263.501 -0.428362 261.471 0.41741 260.625 2.10895L238.466 50.6563L262.317 102.925C262.824 104.278 264.178 104.955 265.531 104.955C266.038 104.955 266.546 104.786 266.884 104.617C268.576 103.771 269.252 101.741 268.576 100.049Z" fill="#C7C7C7"/>
<path d="M28.2072 0.0791015L4.18729 0.0791016C2.32659 0.0791016 0.804199 1.60149 0.804199 3.46219C0.804199 5.32289 2.32659 6.84528 4.18729 6.84528L28.2072 6.84528C34.9734 6.84528 44.7843 15.1338 44.7843 30.3577C44.7843 45.4125 34.9734 53.701 28.2072 53.701L4.18729 53.701C2.32659 53.701 0.804199 55.2234 0.804199 57.0841C0.804199 58.9448 2.32659 60.4672 4.18729 60.4672L28.2072 60.4672C39.5406 60.4672 51.7197 48.2881 51.7197 30.1886C51.7197 12.2582 39.5406 0.0791015 28.2072 0.0791015ZM109.74 2.61642C109.232 1.09403 108.048 0.0791013 106.357 0.0791013C104.834 0.0791013 103.481 1.09403 102.973 2.61642L74.7247 100.557C74.2172 102.418 75.2321 104.278 77.0928 104.786C78.9535 105.293 80.8142 104.278 81.3217 102.418L106.526 15.9796L131.73 102.587C132.237 104.109 133.59 105.124 135.113 105.124C135.451 105.124 135.789 105.124 136.128 104.955C137.988 104.447 139.003 102.587 138.496 100.726L109.74 2.61642ZM182.307 0.0791011L158.456 0.0791012C156.595 0.0791012 155.073 1.60149 155.073 3.46219C155.073 5.32289 156.595 6.84528 158.456 6.84528L182.476 6.84528C190.257 6.84528 199.053 15.1338 199.053 26.9746C199.053 38.8155 190.257 47.104 182.476 47.104L173.849 47.104C171.312 47.104 169.789 49.303 170.635 51.6712L188.566 102.418C189.073 103.771 190.426 104.786 191.779 104.786C192.118 104.786 192.625 104.786 192.964 104.617C194.824 103.94 195.67 102.079 194.993 100.218L178.755 54.2085L182.476 54.2085C193.809 54.2085 205.988 43.3826 205.988 27.1438C205.988 10.905 193.64 0.0791011 182.307 0.0791011ZM268.576 100.049L246.078 50.6563L266.884 4.98458C267.73 3.29303 266.884 1.26318 265.193 0.41741C263.501 -0.428362 261.471 0.41741 260.625 2.10895L238.466 50.6563L262.317 102.925C262.824 104.278 264.178 104.955 265.531 104.955C266.038 104.955 266.546 104.786 266.884 104.617C268.576 103.771 269.252 101.741 268.576 100.049Z" fill="#C7C7C7"/>
</svg>
