<svg xmlns="http://www.w3.org/2000/svg" viewBox="0 0 158.46 62"><defs><style>.cls-1{fill:#fff;}</style></defs><g id="Layer_2" data-name="Layer 2"><g id="Layer_1-2" data-name="Layer 1"><path class="cls-1" d="M16.23,0H2A2,2,0,0,0,2,4.08H16.23C20.22,4.08,26,9,26,17.93s-5.78,13.85-9.77,13.85H2a2,2,0,0,0,0,4.08H16.23c6.69,0,13.85-7.2,13.85-17.93S22.92,0,16.23,0ZM64.42,1.47a2,2,0,0,0-3.92,0L43.68,59.38a2,2,0,1,0,3.91,1.14L62.46,9.35,77.33,60.53a2,2,0,0,0,2,1.47,2.24,2.24,0,0,0,.57-.08,2,2,0,0,0,1.39-2.53ZM107.34,0H93.16a2,2,0,1,0,0,4.08h14.18c4.63,0,9.78,4.9,9.78,11.93S112,27.94,107.34,27.94h-5a2,2,0,0,0-1.92,2.72l10.62,30A2,2,0,0,0,112.91,62a2.08,2.08,0,0,0,.68-.12,2,2,0,0,0,1.24-2.6L105.18,32h2.16c6.69,0,13.86-6.43,13.86-16S114,0,107.34,0Zm50.94,59.11L145,29.91l12.3-27a2,2,0,1,0-3.71-1.69L140.5,29.91,154.57,60.8a2,2,0,0,0,1.85,1.2,2,2,0,0,0,.85-.19A2,2,0,0,0,158.28,59.11Z"/></g></g></svg>