<svg width="29" height="29" viewBox="0 0 29 29" fill="none" xmlns="http://www.w3.org/2000/svg">
<path d="M19.5508 28.4429L9.05078 28.4429C4.21903 28.4429 0.300781 24.5246 0.300781 19.6929L0.300781 9.19287C0.300781 4.36112 4.21903 0.442871 9.05078 0.442871L19.5508 0.442871C24.3825 0.442871 28.3008 4.36112 28.3008 9.19287L28.3008 19.6929C28.3008 24.5246 24.3825 28.4429 19.5508 28.4429ZM25.6758 9.19287C25.6758 5.81537 22.9283 3.06787 19.5508 3.06787L9.05078 3.06787C5.67328 3.06787 2.92578 5.81537 2.92578 9.19287L2.92578 19.6929C2.92578 23.0704 5.67328 25.8179 9.05078 25.8179L19.5508 25.8179C22.9283 25.8179 25.6758 23.0704 25.6758 19.6929L25.6758 9.19287Z" fill="white"/>
<path d="M14.3003 21.4429C10.4345 21.4429 7.30029 18.3086 7.30029 14.4429C7.30029 10.5771 10.4345 7.44287 14.3003 7.44287C18.166 7.44287 21.3003 10.5771 21.3003 14.4429C21.3003 18.3086 18.166 21.4429 14.3003 21.4429ZM14.3003 10.0679C11.8888 10.0679 9.92529 12.0314 9.92529 14.4429C9.92529 16.8561 11.8888 18.8179 14.3003 18.8179C16.7118 18.8179 18.6753 16.8561 18.6753 14.4429C18.6753 12.0314 16.7118 10.0679 14.3003 10.0679Z" fill="white"/>
<path d="M5.16468 8.05199C5.67983 8.05199 6.09743 8.46959 6.09743 8.98473C6.09743 9.49988 5.67983 9.91748 5.16468 9.91748C4.64954 9.91748 4.23193 9.49988 4.23193 8.98473C4.23193 8.46959 4.64954 8.05199 5.16468 8.05199Z" fill="white"/>
<rect x="0.300781" y="0.442383" width="28" height="28" rx="7" fill="white"/>
<path d="M14.8565 16.9456C14.675 17.059 14.4709 17.1044 14.2894 17.1044C14.108 17.1044 13.9039 17.059 13.7224 16.9456L4.69531 11.4341V18.7601C4.69531 20.3251 5.96546 21.5952 7.53046 21.5952H21.0711C22.6361 21.5952 23.9063 20.3251 23.9063 18.7601V11.4341L14.8565 16.9456Z" fill="black"/>
<path d="M20.9804 7.44238L7.43973 7.44238C6.10154 7.44238 4.96749 8.39499 4.69531 9.66514L14.2214 15.4715L23.7248 9.66514C23.4526 8.39499 22.3186 7.44238 20.9804 7.44238Z" fill="black"/>
</svg>
