<svg width="29" height="29" viewBox="0 0 29 29" fill="none" xmlns="http://www.w3.org/2000/svg">
<path d="M9.58496 0.978027L20.085 0.978027C24.9167 0.978027 28.835 4.89628 28.835 9.72803V20.228C28.835 25.0598 24.9167 28.978 20.085 28.978H9.58496C4.75321 28.978 0.834963 25.0598 0.834963 20.228V9.72803C0.834963 4.89628 4.75321 0.978027 9.58496 0.978027ZM3.45996 20.228C3.45996 23.6055 6.20746 26.353 9.58496 26.353H20.085C23.4625 26.353 26.21 23.6055 26.21 20.228V9.72803C26.21 6.35053 23.4625 3.60303 20.085 3.60303L9.58496 3.60303C6.20746 3.60303 3.45996 6.35053 3.45996 9.72803V20.228Z" fill="#C7C7C7"/>
<path d="M14.835 7.97803C18.7007 7.97803 21.835 11.1123 21.835 14.978C21.835 18.8438 18.7007 21.978 14.835 21.978C10.9692 21.978 7.83496 18.8438 7.83496 14.978C7.83496 11.1123 10.9692 7.97803 14.835 7.97803ZM14.835 19.353C17.2465 19.353 19.21 17.3895 19.21 14.978C19.21 12.5648 17.2465 10.603 14.835 10.603C12.4235 10.603 10.46 12.5648 10.46 14.978C10.46 17.3895 12.4235 19.353 14.835 19.353Z" fill="#C7C7C7"/>
<path d="M7.30993 8.38551C6.79478 8.38551 6.37717 7.96791 6.37717 7.45277C6.37717 6.93762 6.79478 6.52002 7.30993 6.52002C7.82507 6.52002 8.24268 6.93762 8.24268 7.45277C8.24268 7.96791 7.82507 8.38551 7.30993 8.38551Z" fill="#C7C7C7"/>
<rect x="0.834961" y="0.978027" width="28" height="28" rx="7" fill="#C7C7C7"/>
<path d="M15.3904 17.4812C15.209 17.5947 15.0048 17.64 14.8234 17.64C14.6419 17.64 14.4378 17.5947 14.2564 17.4812L5.22925 11.9697V19.2957C5.22925 20.8607 6.49939 22.1309 8.06439 22.1309H21.6051C23.1701 22.1309 24.4402 20.8607 24.4402 19.2957V11.9697L15.3904 17.4812Z" fill="black"/>
<path d="M21.5143 7.97803H7.97367C6.63548 7.97803 5.50142 8.93064 5.22925 10.2008L14.7553 16.0072L24.2587 10.2008C23.9866 8.93064 22.8525 7.97803 21.5143 7.97803Z" fill="black"/>
</svg>
