<svg width="29" height="29" viewBox="0 0 29 29" fill="none" xmlns="http://www.w3.org/2000/svg">
<path d="M21.6877 0.758789L7.74322 0.758789C3.87962 0.758789 0.726562 3.91184 0.726562 7.77544L0.726562 21.7421C0.726562 25.5835 3.87962 28.7366 7.74322 28.7366H21.7099C25.5735 28.7366 28.7266 25.5835 28.7266 21.7199V7.77544C28.7044 3.91184 25.5513 0.758789 21.6877 0.758789ZM22.7757 10.8175C21.7987 16.2798 16.3586 20.8984 14.7155 21.942C13.0723 23.0078 11.5846 21.5201 11.0295 20.4099C10.4078 19.1442 8.54258 12.2164 8.05408 11.6612C7.56558 11.0839 6.10008 12.2386 6.10008 12.2386L5.38953 11.306C5.38953 11.306 8.36494 7.77544 10.6076 7.35356C13.0279 6.86505 13.0279 10.9951 13.6052 13.2822C14.1603 15.5026 14.5378 16.7683 15.0263 16.7683C15.5148 16.7683 16.4474 15.5248 17.4688 13.6375C18.4902 11.7501 17.4244 10.0625 15.426 11.2616C16.2254 6.50978 23.7527 5.35514 22.7757 10.8175Z" fill="white"/>
</svg>
