<svg width="29" height="28" viewBox="0 0 29 28" fill="none" xmlns="http://www.w3.org/2000/svg">
<path d="M21.7961 0L7.85161 0C3.98801 0 0.834961 3.15305 0.834961 7.01665L0.834961 20.9833C0.834961 24.8247 3.98801 27.9778 7.85161 27.9778H21.8183C25.6819 27.9778 28.835 24.8247 28.835 20.9611V7.01665C28.8128 3.15305 25.6597 0 21.7961 0ZM22.8841 10.0587C21.9071 15.521 16.467 20.1396 14.8239 21.1832C13.1807 22.249 11.693 20.7613 11.1379 19.6511C10.5162 18.3854 8.65098 11.4576 8.16248 10.9025C7.67398 10.3251 6.20847 11.4798 6.20847 11.4798L5.49793 10.5472C5.49793 10.5472 8.47334 7.01665 10.716 6.59477C13.1363 6.10626 13.1363 10.2363 13.7136 12.5234C14.2687 14.7439 14.6462 16.0095 15.1347 16.0095C15.6232 16.0095 16.5558 14.7661 17.5772 12.8787C18.5986 10.9913 17.5328 9.30373 15.5344 10.5028C16.3338 5.75099 23.8611 4.59635 22.8841 10.0587Z" fill="#C7C7C7"/>
</svg>
